<svg xmlns="http://www.w3.org/2000/svg" xmlns:xlink="http://www.w3.org/1999/xlink" width="48" height="48" viewBox="0 0 48 48"><defs><linearGradient id="b" x1="868.253" x2="937.656" y1="521.354" y2="588.736" gradientTransform="translate(-1326.968 211.343) scale(1.53785)" gradientUnits="userSpaceOnUse" xlink:href="#a"/><linearGradient id="a"><stop offset="0" stop-color="#24f3d2"/><stop offset=".394" stop-color="#0674f0"/><stop offset=".507" stop-color="#6961b5"/><stop offset=".813" stop-color="#f34660"/><stop offset="1" stop-color="#ee078d"/></linearGradient></defs><g transform="translate(0 -1004.362)"><rect width="48" height="48" y="1004.362" fill="url(#b)" rx="10.144" ry="10.144"/><path fill="#fff" fill-rule="evenodd" d="m 29.279296,1017.9892 c -1.719944,0 -3.440865,0.6605 -4.753906,1.9785 l -0.525391,0.5274 -0.525391,-0.5274 c -1.313041,-1.318 -3.032186,-1.9765 -4.751953,-1.9765 -1.719766,0 -3.440864,0.6585 -4.753906,1.9765 -2.626077,2.6359 -2.626066,6.8992 0,9.5352 l 0.88086,0.8828 8.796874,8.8301 a 0.50005,0.50005 0 0 0 0.707032,0 l 8.796875,-8.8301 0.880859,-0.8828 c 2.626068,-2.636 2.62608,-6.8993 0,-9.5352 -1.313042,-1.318 -3.032009,-1.9785 -4.751953,-1.9785 z m -10.556641,0.9922 c 1.460244,0 2.919321,0.5655 4.042969,1.6934 l 0.880859,0.8828 a 0.50005,0.50005 0 0 0 0.707032,0 l 0.880859,-0.8828 c 2.247297,-2.2558 5.840594,-2.2558 8.087891,0 2.247304,2.2557 2.247316,5.8672 0,8.123 l -0.878907,0.8828 -8.443359,8.4746 -8.443359,-8.4746 -0.878906,-0.8828 c -2.247315,-2.2558 -2.247303,-5.8673 0,-8.123 1.123648,-1.1279 2.584678,-1.6934 4.044921,-1.6934 z m 0.02734,1.0098 c -1.69621,0 -3.265176,0.9061 -4.113281,2.375 -0.848105,1.469 -0.848105,3.2811 0,4.75 a 0.50005,0.50005 0 1 0 0.865234,-0.5 c -0.670273,-1.1609 -0.670274,-2.589 0,-3.75 0.670274,-1.1609 1.9075,-1.875 3.248047,-1.875 a 0.50005,0.50005 0 1 0 0,-1 z" color="#000" font-family="sans-serif" font-weight="400" overflow="visible" white-space="normal" style="line-height:normal;text-indent:0;text-align:start;text-decoration-line:none;text-decoration-style:solid;text-decoration-color:#000;text-transform:none;block-progression:tb;isolation:auto;mix-blend-mode:normal"/></g></svg>