<?xml version="1.0" encoding="UTF-8"?>
<svg xmlns="http://www.w3.org/2000/svg" xmlns:xlink="http://www.w3.org/1999/xlink" width="132pt" height="132pt" viewBox="0 0 132 132" version="1.1">
<g id="surface1">
<path style=" stroke:none;fill-rule:evenodd;fill:rgb(100%,100%,100%);fill-opacity:1;" d="M 131 131 L 1 131 L 1 1 L 131 1 L 131 131 "/>
<path style=" stroke:none;fill-rule:evenodd;fill:rgb(38.035583%,74.021912%,90.234375%);fill-opacity:1;" d="M 114 130 L 18 130 C 9.164063 130 2 122.835938 2 114 L 2 18 C 2 9.164063 9.164063 2 18 2 L 114 2 C 122.835938 2 130 9.164063 130 18 L 130 114 C 130 122.835938 122.835938 130 114 130 "/>
<path style=" stroke:none;fill-rule:evenodd;fill:rgb(34.104919%,66.601563%,81.25%);fill-opacity:1;" d="M 102.289063 33.886719 L 67.863281 43.011719 L 58.898438 34.046875 L 16.84375 67.570313 L 23.273438 74 L 35.410156 90.480469 L 74.929688 130 L 114 130 C 122.835938 130 130 122.835938 130 114 L 130 61.597656 L 102.289063 33.886719 "/>
<path style=" stroke:none;fill-rule:evenodd;fill:rgb(91.796875%,31.762695%,31.37207%);fill-opacity:1;" d="M 66 47.652344 C 56 12.171875 19.089844 30.910156 19.089844 56.707031 C 19.089844 82.5 45.089844 100.15625 66 114 C 90.363281 97.980469 112.910156 82.5 112.910156 56.707031 C 112.910156 30.910156 78.351563 11.988281 66 47.652344 "/>
<path style=" stroke:none;fill-rule:evenodd;fill:rgb(77.734375%,27.050781%,26.660156%);fill-opacity:1;" d="M 101.949219 33.605469 C 106.164063 38.714844 108.910156 45.4375 108.910156 52.707031 C 108.910156 78.5 86.363281 93.980469 62 110 C 52.644531 103.804688 42.277344 96.84375 33.667969 88.734375 C 42.917969 98.585938 55.140625 106.808594 66 114 C 90.363281 97.980469 112.910156 82.5 112.910156 56.707031 C 112.910156 47.335938 108.347656 38.875 101.949219 33.605469 "/>
<path style=" stroke:none;fill-rule:evenodd;fill:rgb(77.734375%,27.050781%,26.660156%);fill-opacity:1;" d="M 112.074219 65 L 89.734375 65 L 83.789063 53.105469 C 83.449219 52.425781 82.757813 52 82 52 C 81.242188 52 80.550781 52.425781 80.210938 53.105469 L 67.371094 78.785156 L 54.898438 41.367188 C 54.628906 40.558594 53.875 40.011719 53.023438 40 C 52.152344 39.976563 51.40625 40.523438 51.117188 41.324219 L 42.59375 65 L 20.027344 65 C 20.332031 66.355469 20.707031 67.691406 21.148438 69 L 44 69 C 44.84375 69 45.59375 68.46875 45.882813 67.675781 L 52.925781 48.105469 L 65.101563 84.632813 C 65.359375 85.398438 66.050781 85.9375 66.859375 85.996094 C 66.90625 85.996094 66.953125 86 67 86 C 67.753906 86 68.449219 85.574219 68.789063 84.894531 L 82 58.472656 L 86.710938 67.894531 C 87.050781 68.574219 87.742188 69 88.5 69 L 111.046875 69 C 111.453125 67.695313 111.796875 66.363281 112.074219 65 "/>
<path style=" stroke:none;fill-rule:evenodd;fill:rgb(99.21875%,96.484375%,89.0625%);fill-opacity:1;" d="M 66 85 C 65.953125 85 65.90625 84.996094 65.859375 84.996094 C 65.050781 84.9375 64.359375 84.398438 64.101563 83.632813 L 51.925781 47.105469 L 44.882813 66.675781 C 44.59375 67.46875 43.84375 68 43 68 L 18 68 C 16.894531 68 16 67.105469 16 66 C 16 64.894531 16.894531 64 18 64 L 41.59375 64 L 50.117188 40.324219 C 50.40625 39.523438 51.152344 38.976563 52.023438 39 C 52.875 39.011719 53.628906 39.558594 53.898438 40.367188 L 66.371094 77.785156 L 79.210938 52.105469 C 79.550781 51.425781 80.242188 51 81 51 C 81.757813 51 82.449219 51.425781 82.789063 52.105469 L 88.734375 64 L 114 64 C 115.105469 64 116 64.894531 116 66 C 116 67.105469 115.105469 68 114 68 L 87.5 68 C 86.742188 68 86.050781 67.574219 85.710938 66.894531 L 81 57.472656 L 67.789063 83.894531 C 67.449219 84.574219 66.753906 85 66 85 "/>
</g>
</svg>
